<?xml version="1.0" encoding="UTF-8"?>
<svg id="Camada_2" data-name="Camada 2" xmlns="http://www.w3.org/2000/svg" viewBox="0 0 2468.29 906.27">
  <defs>
    <style>
      .cls-1 {
        fill: #fff;
      }
    </style>
  </defs>
  <g id="Camada_1-2" data-name="Camada 1">
    <g>
      <path class="cls-1" d="M2331.71,357.08c0,192.12-272.33,357.49-661.09,429.07,429.89-67.06,733.49-231.2,733.49-423.31,0-47.72-18.51-93.38-53.48-136.58-5.76-6.99-11.93-13.99-18.51-20.98-77.75-82.28-214.33-153.45-389.99-205.28,238.19,85.57,389.58,213.92,389.58,357.08ZM155.09,197.46c-51.01,51.01-79.4,106.96-79.4,165.79,0,185.94,285.91,346.38,696.06,416.73-371.89-74.87-629-236.13-629-422.9,0-137.81,139.87-261.64,362.43-347.21-139.46,44.43-252.18,101.2-327.05,166.2-8.23,6.99-15.63,13.99-23.04,21.39Z"/>
      <path class="cls-1" d="M2332.54,205.28c6.58,6.99,12.75,13.99,18.51,20.98,60.47,53.48,93.8,112.31,93.8,174.01,0,248.47-541.79,449.64-1209.87,449.64S25.09,649.16,25.09,400.69c0-73.23,46.9-142.34,130.41-203.22,7.4-7.4,14.81-14.4,23.04-21.39C65,248.47,0,334.04,0,425.37c0,265.75,552.49,480.91,1234.56,480.91s1233.73-215.15,1233.73-480.91c0-79.4-48.95-153.86-135.76-220.09h0Z"/>
      <path class="cls-1" d="M533.56,201.58v-11.52h391.64v11.52h-32.91c-37.02,0-64.18,4.53-81.04,13.58-10.7,5.76-16.46,20.16-16.46,42.78v185.53c0,28.8-7.82,52.25-22.63,69.93-15.22,17.69-41.14,33.32-78.16,46.49-37.02,13.16-81.45,19.75-134.11,19.75-42.37,0-75.69-4.53-99.97-13.16-24.27-8.64-36.61-18.51-36.61-29.62,0-9.46,5.35-16.04,16.46-20.98,14.81-5.76,32.09-8.64,52.25-8.64,14.4,0,27.56,2.06,38.67,5.76,11.52,3.7,25.51,14.4,43.2,30.85,10.28,9.87,23.45,14.81,39.9,14.81,11.93,0,23.45-2.88,34.14-9.05,10.28-6.17,15.63-16.87,15.63-32.91v-259.17c0-18.92-2.88-31.68-8.64-37.85-4.53-4.53-13.99-8.23-27.97-11.93-18.92-4.53-39.49-6.58-60.88-6.58h-32.5v.41ZM1248.54,550.02c8.23-1.65,16.46-3.7,24.68-6.58,18.92-6.58,33.32-16.46,43.61-29.21,9.87-12.34,15.22-26.74,15.22-42.37,0-17.69-6.17-33.73-18.92-47.72-12.34-14.4-29.21-24.27-51.01-30.03-4.11-1.23-9.05-2.47-13.99-3.29v-34.56c1.65-.41,3.29-.82,5.35-1.23,18.92-5.76,33.73-14.4,43.61-25.51,10.28-11.11,15.63-25.09,15.63-41.96s-5.35-30.44-15.22-41.14c-9.87-11.11-24.27-18.92-43.2-25.09-2.06-.41-4.11-1.23-6.17-1.65v-27.56c54.3.82,93.38,4.53,117.66,11.52,27.56,7.82,48.95,19.33,65,34.97,15.63,15.22,23.45,32.09,23.45,49.37,0,18.51-9.87,34.56-30.03,49.37-20.16,14.4-55.13,25.51-105.31,34.14,54.3,8.64,92.15,18.92,113.95,30.85,31.68,16.87,47.72,39.08,47.72,66.64s-17.69,52.25-52.25,71.58c-41.55,22.21-102.02,33.73-180.19,34.14v-24.68h.41ZM1164.62,385.88v136.99c0,9.87,3.7,17.69,11.52,23.04,7.82,5.35,19.33,7.82,34.56,7.82,13.16,0,25.51-1.23,37.85-3.29v24.68h-297.02v-9.87c27.15,0,45.66-1.65,54.71-5.35,9.87-3.29,16.46-7.82,20.57-12.75,3.7-5.35,5.35-18.51,5.35-39.08v-248.06c0-20.98-1.65-34.56-5.35-39.49-3.7-5.35-10.7-9.87-20.57-13.16-9.87-3.29-27.97-4.94-54.71-4.94v-9.87h275.21c7.4,0,14.4,0,21.39.41v27.56c-18.92-4.11-47.31-6.58-83.92-6.17v150.57c36.61,0,64.59-2.47,83.92-7.82v34.56c-20.57-4.11-48.54-6.17-83.51-5.76h0ZM1810.9,566.06c64.59-15.22,98.73-47.72,98.73-86.39,0-54.3-60.88-86.8-152.62-109.43-9.46-2.47-18.92-5.35-27.97-7.82v-33.32c19.33,8.23,43.2,16.04,70.76,23.45,100.79,25.51,175.25,58.83,175.25,117.66s-73.64,91.74-152.62,98.73c-5.76.82-15.22-1.65-11.52-2.88h0ZM1729.45,194.58c23.04-3.29,48.95-5.35,77.75-5.35,87.21,0,126.29,11.11,130,18.92,4.94,11.52,7.82,38.67,7.82,55.95,0,4.53-20.57,5.35-22.21,0-16.46-38.67-44.02-62.12-120.53-62.12-27.56,0-52.66,3.29-72.81,9.46v-16.87ZM1729.45,567.71c76.93-10.7,121.77-40.32,121.77-81.04s-44.84-67.88-121.77-90.5v14.81c55.13,19.75,83.51,43.2,83.51,77.34s-31.68,55.95-83.51,65v14.4ZM1729.45,362.84c-74.46-22.21-122.59-46.49-121.77-85.57-.82-39.9,43.2-70.35,121.77-82.28v16.46c-35.79,10.7-57.18,30.44-57.18,56.77s20.57,45.25,57.18,60.88v33.73ZM1729.45,396.57c-11.93-3.7-24.27-7.4-37.44-10.28-94.21-25.51-141.93-59.65-141.93-104.08s45.66-74.46,102.85-85.57c6.99-1.65-4.94-4.53-10.7-3.7-59.65,6.58-132.05,40.32-132.05,93.38,0,45.25,59.65,81.86,162.5,109.02,21.39,5.35,40.73,10.7,57.18,16.46v-15.22h-.41ZM1729.45,553.72v14.4c-20.16,2.88-42.78,4.11-67.06,4.11h-1.23c-85.16,0-136.58-11.52-141.1-22.63-3.7-10.7-9.87-36.61-9.87-56.77,0-4.53,21.39-4.53,22.63,0,14.4,41.14,54.71,65.82,132.88,65.82,24.27,0,45.25-2.06,63.76-4.94h0Z"/>
    </g>
  </g>
</svg>