<?xml version="1.0" encoding="UTF-8"?>
<svg id="Camada_2" data-name="Camada 2" xmlns="http://www.w3.org/2000/svg" viewBox="0 0 2482.4 2482.4">
  <defs>
    <style>
      .cls-1 {
        fill-rule: evenodd;
      }

      .cls-1, .cls-2 {
        fill: #fff;
      }
    </style>
  </defs>
  <g id="Camada_1-2" data-name="Camada 1">
    <g>
      <path class="cls-1" d="M2395.18,321.45c51.08,214.68,87.22,557.32,87.22,919.67s-36.14,705.15-87.22,919.01c-25.13,122.53-96.75,204.33-234.23,234.89-224.87,56.67-557.32,87.38-919.67,87.38s-694.97-30.72-919.67-87.38c-137.65-30.55-209.1-112.35-235.05-234.89C35.48,1946.27,0,1603.46,0,1241.12S35.48,536.13,86.56,321.45c25.95-121.71,97.4-204.33,235.05-234.23C546.31,30.72,878.11,0,1241.28,0s693.98,30.72,918.85,87.22c138.3,29.89,209.92,112.52,235.05,234.23ZM1788.25,1242.76h303.54v-158.01l-303.54,53.38v104.63ZM274.31,1327.02v621.71h181.67v-621.71h-181.67ZM473.22,1158c0-62.91-44.84-104.63-107.75-104.63s-107.75,41.72-107.75,104.63,44.02,103.65,107.75,103.65,107.75-41.56,107.75-103.65ZM957.45,1327.02h-158.84v-188.73l-181.67,33.02v155.71h-91.16v141.42h91.16v265.6c0,150.95,78.68,226.51,219.45,226.51,50.26,0,91.82-6.41,112.35-11.83v-139.12c-13.3,3.94-36.96,7.06-64.55,7.06-58.8,0-85.58-29.07-85.58-94.28v-253.94h158.84v-141.42ZM1563.39,1583.26c0-177.72-99.87-272.83-276.61-272.83-91.16,0-166.72,14.95-239.81,42.54v146.19c71.62-27.59,143.89-44.84,210.74-44.84,84.1,0,130.42,38.6,130.42,106.11-14.13-1.48-38.6-3.12-61.27-3.12-191.85,0-312.09,79.34-312.09,214.52,0,117.94,82.46,191.85,213.04,191.85,73.09,0,125.66-29.89,162.61-80.16l2.46,64.39h170.5v-364.65ZM2207.93,1327.02h-182.32v366.29c0,75.56-38.44,123.52-98.23,123.52s-91.98-40.08-91.98-115.64v-374.17h-182.32v404.07c0,142.25,81.64,233.41,209.1,233.41,76.21,0,127.3-27.43,168.2-82.46l2.3,66.85h175.26v-621.87Z"/>
      <path class="cls-2" d="M1190.85,1757.54c0,50.43,34.66,75.56,91.16,75.56,62.91,0,107.75-45.66,107.75-111.69v-48.62c-8.71-1.64-31.37-2.46-45.5-2.46-98.39,0-153.41,29.89-153.41,87.22h0Z"/>
    </g>
  </g>
</svg>