<?xml version="1.0" encoding="UTF-8"?>
<svg id="Camada_2" data-name="Camada 2" xmlns="http://www.w3.org/2000/svg" viewBox="0 0 2439.67 2470.95">
  <defs>
    <style>
      .cls-1 {
        fill: none;
      }

      .cls-2 {
        fill: #fff;
        fill-rule: evenodd;
      }
    </style>
  </defs>
  <g id="Camada_1-2" data-name="Camada 1">
    <g>
      <path class="cls-2" d="M2343.86,755.04c-61.68-147.97-148.93-279.82-261.82-393.65-111.92-113.82-241.88-202.04-387.02-264.64C1544.23,32.24,1384.88,0,1219.82,0s-323.45,32.24-474.27,96.75c-146.08,62.61-276.02,150.81-387.96,264.64-112.88,113.83-200.14,245.68-261.8,393.65C32.24,907.76,0,1068.05,0,1235.95s32.24,327.26,95.79,479.97c61.67,147.97,148.93,279.82,261.8,393.65,111.94,113.82,241.88,202.04,387.96,264.64,150.81,64.5,308.27,96.75,474.26,96.75s324.41-32.26,475.21-96.75c145.14-62.62,275.1-150.83,387.02-264.64,112.88-113.83,200.14-245.69,261.82-393.65,63.55-152.71,95.81-313.02,95.81-479.97s-32.24-328.19-95.81-480.91h0ZM1742.47,1080.39c55.96,0,105.29,19.92,146.08,60.71,39.85,40.79,59.75,90.12,59.75,147.02s-19.91,106.25-59.75,146.08c-40.79,40.8-90.12,61.67-146.08,61.67s-104.33-20.88-144.18-61.67c-40.79-39.83-60.72-89.16-60.72-146.08s19.94-106.25,60.72-147.02c39.86-40.8,88.23-60.71,144.18-60.71ZM264.66,1053.83c49.33-51.23,108.13-75.88,179.28-74.93,56.9-.96,109.08,17.07,154.6,53.11,44.58,35.1,73.99,80.63,89.16,135.64h-103.39c-13.28-26.55-32.24-49.33-55.96-65.46-26.55-17.07-54.06-25.61-84.41-25.61-43.64,0-80.63,16.13-110.98,46.48-31.3,31.3-46.48,68.3-45.54,111.94-.96,43.62,14.23,80.62,45.54,111.92,30.35,30.36,67.36,46.49,110.98,46.49,30.35,0,57.86-8.54,84.41-24.67,23.73-16.9,42.95-39.37,55.96-65.44h103.39c-15.17,55-44.58,99.6-89.16,135.64-45.54,35.1-97.7,52.18-154.6,52.18-71.15,0-129.95-24.67-179.28-74-50.27-50.27-74.94-111.92-74.94-182.11s24.66-130.9,74.94-181.16h0ZM930.53,1131.61c26.55-35.1,73.03-53.12,139.43-52.17,42.7-.96,80.63,7.59,114.77,25.61,32.24,17.07,49.33,50.27,49.33,97.7v290.26h-98.64v-40.8c-30.35,26.57-73.05,39.85-127.11,40.8-33.2-.96-60.71-10.44-80.63-27.51-22.78-20.88-34.14-49.31-33.2-84.43-.94-50.29,17.07-85.37,54.06-107.19,21.82-12.34,50.27-20.88,85.37-25.61l75.88-12.34c15.17-6.63,22.76-17.05,22.76-30.35-.96-16.13-5.69-27.51-17.07-33.2-11.38-6.65-27.51-10.44-48.39-9.48-24.66-.96-41.74,5.69-52.17,18.97-6.65,7.59-12.34,18.97-14.23,36.05h-98.64c2.87-36.07,11.4-64.52,28.48-86.32h0ZM737.97,978.89h98.64v514.11h-98.64v-514.11ZM1394.38,1149.63c19.91-27.51,43.61-45.54,70.18-55.96l37.95-10.44,25.6-1.9.96,100.54-30.36-1.9c-18.97,0-36.98,5.69-54.06,17.07-15.17,10.44-27.53,22.78-34.16,37.95-8.53,14.22-12.32,36.98-12.32,69.24v188.76h-97.7v-394.6l93.91.96v50.29h.02ZM2203.46,857.47l-238.07,238.07-62.59-62.61,238.07-238.07,62.59,62.61ZM1798.43,745.55v255.16h-88.22v-255.16h88.22ZM2009.03,1282.42v-88.22h260.85v88.22h-260.85Z"/>
      <path class="cls-1" d="M1896.59,1154.39c-41.26-41.28-91.17-61.42-147.78-61.42s-105.55,20.16-145.86,61.42c-41.26,41.26-61.43,91.17-61.43,148.73s20.17,107.48,61.43,147.78c40.31,41.28,89.25,62.38,145.86,62.38s106.52-21.12,147.78-62.38c40.31-40.29,60.45-90.2,60.45-147.78s-20.14-107.48-60.45-148.73h0ZM1826.55,1380.84c-21.12,22.07-47.02,32.64-77.72,32.64s-55.66-10.56-76.75-32.64c-21.12-22.07-32.64-47.99-32.64-77.72,0-31.67,11.51-57.56,32.64-78.69,21.09-22.07,47.02-32.64,76.75-31.67,30.72-.97,56.61,9.59,78.7,31.67,20.14,21.12,30.72,47.02,31.65,78.69-.95,29.73-11.53,55.64-32.63,77.72h0Z"/>
      <path class="cls-2" d="M1748.81,1413.48c30.72,0,56.61-10.56,77.72-32.64s31.68-47.99,32.63-77.72c-.95-31.67-11.51-57.56-32.63-78.69-21.12-22.07-47.02-32.64-77.72-31.67-29.73-.97-55.66,9.59-76.75,31.67-21.12,21.12-32.64,47.02-32.64,78.69,0,29.73,11.51,55.64,32.64,77.72,21.09,22.07,47.02,32.64,76.75,32.64Z"/>
      <path class="cls-1" d="M435.15,990.3c-71.98-.97-131.46,23.99-181.36,75.8-50.86,50.86-75.82,111.31-75.82,183.28s24.96,133.38,75.82,184.23c49.9,49.9,109.39,74.86,181.36,74.86,57.56,0,110.35-17.27,156.4-52.79,45.1-36.46,74.85-81.57,90.2-137.22h-104.6c-13.17,26.37-32.61,49.1-56.61,66.21-26.86,16.32-54.69,24.96-85.39,24.96-44.15,0-81.57-16.32-112.27-47.03-31.67-31.67-47.02-69.09-46.07-113.22-.97-44.15,14.4-81.57,46.07-113.24,30.7-30.7,68.14-47.02,112.27-47.02,30.7,0,58.53,8.64,85.39,25.91,23.99,16.32,43.2,39.34,56.61,66.22h104.6c-15.35-55.66-45.1-101.71-90.2-137.22-46.07-36.47-98.84-54.69-156.4-53.74ZM1068.47,1092.01c-67.17-.97-114.19,17.27-141.05,52.77-17.27,22.07-25.91,50.86-28.8,87.33h99.79c1.92-17.27,7.68-28.8,14.4-36.47,10.55-13.43,27.83-20.16,52.77-19.19,21.12-.97,37.42,2.89,48.95,9.59,11.51,5.76,16.3,17.27,17.27,33.59,0,13.43-7.68,23.99-23.03,30.7l-76.77,12.48c-35.51,4.8-64.29,13.43-86.36,25.91-37.42,22.07-55.64,57.56-54.69,108.43-.95,35.51,10.56,64.29,33.59,85.41,20.16,17.27,47.97,26.88,81.57,27.83,54.69-.97,97.87-14.4,128.59-41.28v41.28h99.79v-293.64c0-47.99-17.27-81.57-49.9-98.84-34.55-18.24-72.95-26.86-116.13-25.91h0ZM1110.7,1317.52l19.19-10.56v40.29c0,34.55-9.59,58.55-27.83,71.98-19.19,13.43-39.34,20.14-62.38,20.14-14.4,0-25.91-3.84-35.51-11.5-9.59-8.64-14.4-21.12-14.4-39.34,0-20.16,7.68-34.55,23.99-45.11,9.59-5.74,25.91-10.56,47.02-13.42l49.92-12.48h0Z"/>
      <path class="cls-2" d="M1129.89,1306.96l-19.19,10.56-49.9,12.48c-21.11,2.87-37.42,7.68-47.02,13.42-16.32,10.56-23.99,24.96-23.99,45.11,0,18.24,4.8,30.72,14.4,39.34,9.59,7.66,21.11,11.5,35.51,11.5,23.03,0,43.18-6.71,62.38-20.14,18.24-13.43,27.83-37.42,27.83-71.98v-40.29h-.02,0Z"/>
      <path class="cls-1" d="M832.41,990.3h-99.81v520.1h99.81v-520.1ZM1467.66,1106.41c-26.88,10.55-50.86,28.78-71,56.61v-50.86l-95-.97v399.2h98.84v-190.96c0-32.64,3.84-55.66,12.46-70.04,6.71-15.35,19.19-27.83,34.55-38.39,17.27-11.51,35.49-17.27,54.69-17.27l30.72,1.92-.97-101.71-25.9,1.92-38.41,10.55h0ZM1974.33,1108.33l240.85-240.86-63.32-63.32-240.85,240.85,63.32,63.34ZM1805.43,1012.37v-258.13h-89.23v258.13h89.23ZM2018.47,1208.12v89.25h263.89v-89.25h-263.89Z"/>
    </g>
  </g>
</svg>