<?xml version="1.0" encoding="UTF-8"?>
<svg id="Camada_2" data-name="Camada 2" xmlns="http://www.w3.org/2000/svg" viewBox="0 0 2491.2 2076.88">
  <defs>
    <style>
      .cls-1 {
        fill: #fff;
      }
    </style>
  </defs>
  <g id="Camada_1-2" data-name="Camada 1">
    <g>
      <path class="cls-1" d="M715.38,1725.13c-36.36-.74-68.27,3.71-99.44,11.13-5.94,20.78-5.19,51.2,0,72.73,38.59-8.91,60.11-9.65,84.6-9.65,47.49,0,70.5,19.29,70.5,58.62v3.71c-14.1-1.48-31.17-2.97-43.04-2.97-78.66,0-146.19,28.2-146.19,103.89,0,85.34,60.85,114.28,149.16,114.28,41.56,0,86.82-7.42,128.38-20.04v-192.2c0-92.02-49.72-137.29-143.97-139.51ZM771.03,2001.19c-5.19,1.48-28.2,3.71-39.33,3.71-42.3,0-65.3-12.62-65.3-42.3s23-41.56,65.3-41.56c14.1,0,30.43,1.48,39.33,2.23v77.92Z"/>
      <path class="cls-1" d="M545.44,1729.58c-43.78,0-69.01,17.07-92.76,47.49-2.23-15.58-5.19-28.2-10.39-43.78-8.9-2.97-24.49-3.71-37.85-3.71-12.62,0-28.94,1.48-37.1,3.71v336.17c11.13,2.97,29.68,3.71,46.01,3.71s36.36-1.48,46.01-3.71v-164c0-65.3,34.14-100.18,80.15-100.18,8.16,0,22.26,0,30.43,1.48,5.19-21.52,5.94-52.69,1.48-74.21-5.19-1.48-18.55-2.97-25.97-2.97Z"/>
      <path class="cls-1" d="M161.03,1726.61c-26.72,0-52.69,5.94-69.01,14.1v-164.74c-25.97,9.65-53.43,23-76.44,41.56-11.87,9.65-15.58,19.29-15.58,33.39v406.67c24.49,10.39,74.21,19.29,121.7,19.29,120.22,0,189.23-73.47,189.23-179.59s-48.98-170.68-149.9-170.68ZM126.9,2001.93c-9.65,0-24.49,0-34.88-3.71v-184.78c12.62-6.68,30.43-10.39,53.43-10.39,46.01,0,70.5,31.91,70.5,92.02,0,63.08-28.94,106.86-89.05,106.86Z"/>
      <path class="cls-1" d="M1127.24,1650.92v80.89c-16.33-4.45-33.39-5.19-48.24-5.19-101.67,0-170.68,68.27-170.68,177.36s67.53,172.91,172.91,172.91c48.24,0,95.73-6.68,138.03-20.78v-480.13c-25.97,9.65-53.43,23-76.44,41.56-11.87,9.65-15.58,19.29-15.58,33.39ZM1127.24,1996.73c-15.58,4.45-26.72,5.19-39.33,5.19-60.85,0-84.6-40.07-84.6-97.96,0-64.56,23.75-103.89,83.86-103.89,17.81,0,28.94,2.23,40.07,5.19v191.46Z"/>
      <path class="cls-1" d="M1785.47,1869.84l-37.1-15.58c-21.52-8.9-34.14-16.33-34.14-30.43,0-21.52,19.29-25.97,44.53-25.97s51.2,2.97,86.82,14.1c4.45-24.49,4.45-47.49,0-69.01-22.26-11.87-63.82-17.81-100.18-17.81-71.24,0-125.41,38.59-125.41,96.47,0,51.95,22.26,77.92,84.6,103.15l28.94,11.87c27.46,11.13,35.62,17.81,35.62,35.62,0,26.72-26.72,31.17-48.98,31.17-37.1,0-65.3-7.42-100.92-20.04-5.94,21.52-5.94,49.72,0,71.98,30.43,16.33,71.98,21.52,115.77,21.52,70.5,0,126.9-37.1,126.9-103.89,0-54.91-23.75-80.89-76.44-103.15Z"/>
      <path class="cls-1" d="M2071.92,2001.19c-46.01,0-76.44-36.36-76.44-100.18s24.49-100.18,77.18-100.18c22.26,0,37.85,3.71,58.63,11.87,5.94-20.78,17.07-44.53,32.65-64.56-28.94-14.84-57.14-23-103.15-23-101.67,0-160.29,71.98-160.29,175.88s60.11,175.88,164,175.88c37.85,0,72.72-6.68,100.92-22.26-12.62-16.33-26.72-38.59-34.88-64.56-25.97,10.39-37.1,11.13-58.63,11.13Z"/>
      <path class="cls-1" d="M2329.42,1725.13c-103.15,0-161.03,70.5-161.03,176.62s60.85,175.13,161.03,175.13,161.78-69.01,161.78-175.13-57.88-176.62-161.78-176.62ZM2329.42,2002.67c-51.2,0-66.79-41.56-66.79-100.92s15.58-102.41,66.79-102.41,67.53,43.04,67.53,102.41c0,62.34-17.07,100.92-67.53,100.92Z"/>
      <path class="cls-1" d="M1431.49,1725.13c-99.44,0-160.29,66.79-160.29,178.1s64.56,173.65,175.13,173.65c37.85,0,78.66-6.68,104.63-19.29,5.19-21.52,5.19-49.72,0-71.24-34.14,9.65-63.08,15.58-94.99,15.58-51.2,0-86.83-19.29-94.25-73.47h209.27c2.97-8.16,3.71-35.62,3.71-46.75,0-100.18-56.4-156.58-143.22-156.58ZM1361.74,1860.93c6.68-40.82,31.17-65.3,68.27-65.3,41.56,0,57.88,28.2,59.37,65.3h-127.64Z"/>
      <path class="cls-1" d="M1206.5,293.11c-83.65,0-175.12,7.68-265.46,23.05,91.46-117.42,236.46-193.15,398.19-193.15,119.35,0,238.69,44.99,319,111.94,14.5,12.07,25.65,13.17,36.81,2.19,11.15-10.97,10.04-21.95-2.23-36.21C1587.96,79.11,1434.04-3.2,1252.23.1c-237.58,4.39-439.46,154.74-516.42,363.25-70.27,21.95-134.96,48.29-191.85,80.11-15.62,8.78-21.19,19.75-15.62,32.92,5.58,12.07,16.73,16.46,32.35,12.07,49.08-14.27,99.27-26.34,151.69-37.31-5.58,27.44-8.92,55.97-8.92,85.6-4.46,192.05,98.15,374.22,256.54,474.08,15.62,9.88,29,9.88,37.92-2.19,8.92-12.07,7.81-23.05-5.58-35.12-100.38-89.99-156.15-223.87-156.15-356.66,0-66.94,13.38-131.69,39.04-189.85,52.42-4.39,109.31-7.68,171.77-7.68,406,0,748.42,133.89,748.42,309.47,0,88.89-112.65,177.78-246.5,237.04-32.35,14.27-35.69,24.14-31.23,38.41,4.46,13.17,18.96,17.56,35.69,12.07,234.23-76.82,411.58-203.02,411.58-355.56,0-207.41-334.61-367.64-758.46-367.64Z"/>
      <path class="cls-1" d="M1400.37,1348.09v-444.36c0-17.03-16.44-23.24-30-15.51l-112.97,65.01v416.3l121.35.16c11.93.02,21.62-9.65,21.62-21.59Z"/>
      <path class="cls-1" d="M1119.9,1048.46v307.29c0,7.69,6.23,13.93,13.93,13.93h85.48v-394.56l-85.33,49.14c-8.7,4.96-14.07,12.76-14.07,24.21Z"/>
    </g>
  </g>
</svg>