<?xml version="1.0" encoding="UTF-8"?>
<svg id="Camada_2" data-name="Camada 2" xmlns="http://www.w3.org/2000/svg" viewBox="0 0 2499.78 662">
  <defs>
    <style>
      .cls-1 {
        fill: #fff;
      }
    </style>
  </defs>
  <g id="Camada_1-2" data-name="Camada 1">
    <g>
      <path class="cls-1" d="M2437.09,0h-43.99c-56.46,0-60.04,6.23-64.39,15.86l-87.42,209.97c-29.08,69.67-59.1,144.64-70.62,183.53-10.57-38.9-30.02-90.82-70.62-187.12l-87.42-206.38c-5.29-12.46-27.38-15.86-74.96-15.86h-49.47c-48.53,0-58.35,4.34-58.35,14.16v633.49c0,11.52,9.82,14.16,60.04,14.16h27.38c49.47,0,63.63-2.64,63.63-14.16v-375.75h3.59s4.34,17.56,11.52,33.61l100.64,235.65c4.34,10.57,9.82,14.92,56.46,14.92h30.02c47.58,0,51.17-3.59,55.51-14.92l91.77-226.77c8.87-21.15,14.92-42.48,14.92-42.48h3.59v375.94c0,11.52,9.63,14.16,61.74,14.16h26.43c48.53,0,62.69-2.64,62.69-14.16V14.16c0-9.82-14.16-14.16-62.69-14.16M1704.66,14.16c0-9.82-13.97-14.16-62.5-14.16h-28.32c-51.17,0-60.04,4.34-60.04,14.16v633.49c0,11.52,8.87,14.16,60.04,14.16h28.32c48.53,0,62.69-2.64,62.69-14.16l-.19-633.49ZM1435.59,0c13.22,0,15.86,1.7,15.86,48.53v43.24c0,44.94-3.59,50.23-15.86,50.23h-149.92v505.66c0,11.52-14.16,14.16-64.39,14.16h-26.43c-51.17,0-60.04-2.64-60.04-14.16V141.99h-149.92c-12.27,0-15.86-3.59-15.86-50.23v-43.24c-.19-48.53,2.45-48.53,15.67-48.53h450.9Z"/>
      <path class="cls-1" d="M316.84,520.2H38.14c-10.57,0-20.01,4.34-27,11.14C4.34,538.32,0,547.76,0,558.34v65.33C0,634.24,4.15,643.68,11.14,650.48c6.8,6.99,16.43,11.14,27,11.14h278.7v-141.43ZM780.96,531.53c-6.8-6.99-16.43-11.33-27-11.33h-278.7v141.43h278.7c10.57,0,20.2-4.34,27-11.33,6.8-6.8,10.95-16.43,10.95-26.81v-65.33c0-10.39-4.15-19.83-10.95-26.62M780.96,271.52c-6.8-6.99-16.43-11.33-27-11.33h-278.7v141.43h278.7c10.57,0,20.2-4.34,27-11.33,6.8-6.8,10.95-16.43,10.95-26.81v-65.52c0-10.2-4.15-19.64-10.95-26.43M316.84,260.19H38.14c-10.57,0-20.01,4.15-27,11.14C4.34,278.13,0,287.76,0,298.15v65.52C0,374.05,4.15,383.49,11.14,390.48c6.8,6.99,16.43,11.33,27,11.33h278.7v-141.61ZM753.95,141.61H38.14c-10.57,0-20.01-4.34-27-11.14-6.99-6.99-11.14-16.43-11.14-27V38.14c0-10.39,4.34-20.01,11.14-26.81C17.94,4.34,27.57.19,38.14.19h715.81c10.57,0,20.2,4.34,27,11.33,6.8,6.8,10.95,16.43,10.95,26.81v65.33c0,10.39-4.15,19.83-10.95,26.81-6.8,6.8-16.43,11.14-27,11.14"/>
    </g>
  </g>
</svg>