<?xml version="1.0" encoding="UTF-8"?>
<svg id="Camada_2" data-name="Camada 2" xmlns="http://www.w3.org/2000/svg" viewBox="0 0 2462.54 1856.32">
  <defs>
    <style>
      .cls-1 {
        fill: #fff;
        fill-rule: evenodd;
      }
    </style>
  </defs>
  <g id="Camada_1-2" data-name="Camada 1">
    <g>
      <path class="cls-1" d="M1214.16,461.8c-18.33,122.28-118.61,130.84-178.51,14.68-235.99-420.61-585.68-167.51-212.75,183.41,66.02,52.57,55.03,94.14-25.66,89.26-399.84-145.5-321.57,97.82,88.04,198.09,61.13-8.56,106.38,29.34,55.02,67.23-53.79,80.71,257.99,135.73,343.58,12.25,341.15,83.14,525.78-90.5,328.9-97.83-83.14-12.23-52.56-75.81,11.02-83.14,410.81-139.39,407.15-465.86,8.56-221.31-97.82,63.59-168.72,31.8-125.94-53.8,262.88-397.39-190.77-634.59-292.25-108.83h0ZM1322.99,1073.16c-94.16,92.93-523.33,64.81-490.31-94.16-490.31-160.18-523.32-492.75-145.5-338.69-385.15-476.86,95.37-783.75,420.61-256.76,72.14-583.24,766.63-467.09,556.33,117.38,399.84-243.32,552.67,96.6,61.15,372.93,242.07,6.12-118.61,288.54-402.28,199.3h0Z"/>
      <path class="cls-1" d="M1722.81,1422.84h-91.73v225c-35.45,168.72-229.85,138.16-243.3,0l-1.23-227.43h-100.24l1.2,218.87c7.36,191.94,390.05,235.97,435.31,20.78v-237.22h0ZM0,1789.66h96.6v-223.77c4.89-157.73,245.76-154.03,238.43,11.02v216.41h101.49v-224.97c-46.46-210.32-376.59-210.32-435.28-25.69l-1.24,247.01ZM840.01,1797.01h95.37v-212.78c-15.89-267.77-557.56-209.06-403.49,132.07,57.46,92.93,200.52,111.26,282.44,53.79v-35.45c-86.8,19.56-151.6,40.34-199.3-62.38-84.37-245.76,227.43-297.09,222.52-86.8l2.46,211.55ZM2367.18,1811.65h95.36v-212.75c-15.87-267.77-557.56-209.08-403.49,132.07,57.48,92.93,200.53,110.03,282.44,53.79v-35.45c-86.8,19.56-151.6,40.34-199.3-62.38-84.37-245.76,227.43-297.12,222.52-86.8l2.47,211.52ZM2024.8,1427.74v33.01c-73.35-6.12-112.46,24.47-117.36,91.7l-6.12,251.89h-89.27v-255.55c24.47-110.03,105.18-146.72,212.75-121.05h0ZM1126.13,1416.72h89.26l-2.46,63.61h-81.91v254.32c4.89,68.46,46.46,88.04,103.93,84.37v34.22c-110.05,13.48-190.74-14.65-207.86-136.93v-464.63h99.04v165.03h0Z"/>
    </g>
  </g>
</svg>